<svg xmlns="http://www.w3.org/2000/svg"  viewBox="0 0 512 512" width="512px" height="512px"><polygon fill="#fff" points="485.994,26.005 242.974,373.175 104.104,407.895 138.824,269.025"/><polygon fill="#a4c2f7" points="485.994,26.005 355.804,486.005 242.974,373.175"/><polygon fill="#a4c2f7" points="485.994,26.005 138.824,269.025 25.994,156.195"/><path fill="#418cfe" d="M348.733,493.076L239.907,384.25L106.53,417.596 c-3.408,0.853-7.013-0.147-9.497-2.63c-2.484-2.484-3.482-6.089-2.63-9.497l33.347-133.377L18.923,163.266 c-5.392-5.393-2.991-14.616,4.348-16.693l459.999-130.19c7.495-2.123,14.48,4.802,12.346,12.345l-130.19,460 c-0.966,3.413-3.669,6.06-7.102,6.953C354.918,496.572,351.257,495.601,348.733,493.076z M242.974,363.175 c2.62,0,5.173,1.03,7.072,2.929l100.778,100.778L471.499,40.5L45.117,161.176l100.778,100.778c2.483,2.484,3.482,6.089,2.63,9.497 l-30.677,122.7C247.936,361.737,240.644,363.175,242.974,363.175z"/><path fill="#418cfe" d="M237.24,381.367c-4.525-3.167-5.625-9.402-2.458-13.927L445.306,66.694 L144.559,277.217c-4.526,3.167-10.761,2.066-13.927-2.457c-3.167-4.525-2.067-10.76,2.458-13.927l347.17-243.02 c3.975-2.782,9.373-2.311,12.806,1.122c3.431,3.431,3.903,8.83,1.121,12.806l-243.02,347.169 C247.995,383.441,241.758,384.53,237.24,381.367z"/></svg>